<?xml version="1.0" encoding="UTF-8"?>
<svg version="1.1" viewBox="0 0 2048 1154" width="665" height="375" xmlns="http://www.w3.org/2000/svg">
<path transform="translate(986,128)" d="m0 0 6 1 23 14 11 7 23 12 27 13 24 11 37 14 36 13 27 8 42 10 35 6 11 2 2 4v88l-1 41-3 50-4 32-5 28-11 45 3 7 13 15 14 19 10 13 26 42 12 26 4 13 1 9-2 8-5 6-8 4-10 2-33 2-46 2-12 1-3 1-14 25-10 15-8 10-2 82-8 1h-13l-1-1-1-10v-29l-6 2-10 13-13 17-9 9-7 8-13 14-5 5-13 12-8 7-10 9-18 13-16 11-21 13-11 5-8 1-14-7-37-25-16-11-11-10-14-11-12-11-17-17-10-7h-13l-7-1-3-5-1-5-2-28-3-8-9-16-8-16-6-7-7-8-10-8-8-11-9-14-7-10-20-39-8-16-9-21-10-25-17-53-7-30-6-38-4-37-3-44-1-25-1-63v-34l1-27 2-2 55-11 35-10 27-9 43-16 29-12 16-8 33-16 20-11 14-9z" fill="#071E45"/>
<path transform="translate(987,139)" d="m0 0 6 2 16 10 28 15 38 19 21 9 16 6 22 9 30 11 26 8 30 8 16 3 26 6 18 3 2 2 1 36v76l-2 41-3 27-6 40-5 21-5 15-4 8-4-1-10-8-4-4 1-11 7-36 2-13 1-1 2-16 3-58 1-49v-36l-5-2-27-5-30-7-10-2v-2l-11-2-29-8-36-12-18-7-12-3 3 5 4 5-2 9h-2l-3 15-1 17-1 7-1 6h-2l-1 3-10 8-7 6-3 7-2 9-3 4-11 4h-2v2l-18 8-14 8-12 9-4 5-8 7-7 8h-2l-1 4-8 15h-2l-3 10-6 16-5 17-2 6-1 7-1 24 3 26 9 27 11 22 1 9 2 3v9l1 2v8l-4 8-7 8-4 7-7 9-5 4-6 9h-2v2h-2l-2 4-8 6-11 9-9 8-6 5h-2v2l-5 4h-2v2l-14 9-10 7-5 3h-2v2l-17 9h-3l-1 8 3 8 1 2v10l-2 2-4-1-5-3-12-11-5-4v-2l-3-1-9-11-8-11-14-24-15-30-14-31-13-38-1-1-2-14-7-26-6-25-5-28-4-37-3-42-1-22v-124l7-2 26-5 38-11 10-1v-2l10-2 4-2 9-2 7-3 16-5 12-5 10-5 12-4 10-5 15-6 7-3 24-11 8-5 16-8 11-5h2v-2l5-1v-2l4-2h3v-2l8-5h3v-2z" fill="#1A7BB7"/>
<path transform="translate(1068,341)" d="m0 0h30l22 2 5 2 8 1 4 2 13 3 15 8 14 7 10 8 13 10 9 7v2l4 2 8 10 3 4-1 3h-7l-17-5h-4l5 5h-10l-18-3-14-2-16-5-15-6-12-7h-16l-14 4-9 5-5 2-13 12-8 11-6 12-3 9-2 13v10l4 21 4 12 6 12 10 14 6 7 19 14 13 7v2l9 2 12 6 14 4 16 3h23l9-2h6l4 7 2 5 5 1 4-1 2-5 3-8-9-6-2-2 1-6 3-11v-11l-2-15-1-8-1-7-7-16-7-10-3-3v-2l7 1 18 11 11 12 8 7 4 5 5 3 11 11v2l3 1 6 9 3 5 8 7 10 12 7 11 4 5 1 3 2 1v3l3 1v3l4 2 10 16 8 13 2 7h2l9 17 1 5h2l5 11 3 11v8l-4 5-5 2h-27l-15-1-18-5-10-2-31-2h-33l-25 1-5 1 1 4 14 10 6 4 1 3-8 5-2 1h-6l-8-6-14-24-10-23-6-12-5-5-10-6-33-15-24-12-10-7-15-9-12-9-11-9-8-7-7-8-6-5-1-3-5-5-10-15-3-4-1-4-2-1-5-13-3-12-2-16v-11l1-19-3-7v-7l6-15 7-14 11-13 18-18 18-11 16-7 18-5z" fill="#B0B3B6"/>
<path transform="translate(987,139)" d="m0 0 6 2 16 10 28 15 38 19 21 9 16 6 22 9 30 11 26 8 30 8 16 3 26 6 18 3 2 2 1 36v76l-2 41-3 27-6 40-5 21-5 15-4 8-4-1-10-8-4-4 1-11 7-36 2-13 1-1 2-16 3-58 1-49v-36l-5-2-27-5-30-7-10-2v-2l-11-2-29-8-36-12-34-13-30-12v-2l-11-3-2-1v-2l-5-2-33-16-3-2-7 1-32 16-19 10-28 12-25 10-22 9-38 12-47 12-22 6-12 2v66l1 43 3 44 5 46 4 25 9 37 9 35 9 29 12 29 11 26 1 9-3 2-10 3-6 3-7-10-16-32-8-18-7-16-13-38-10-38-6-25-4-24-4-37-3-42-1-22v-124l7-2 26-5 38-11 10-1v-2l10-2 4-2 9-2 7-3 16-5 12-5 10-5 12-4 10-5 15-6 7-3 24-11 8-5 16-8 11-5h2v-2l5-1v-2l4-2h3v-2l8-5h3v-2z" fill="#B0B3B6"/>
<path transform="translate(898,408)" d="m0 0 6 2 8 10 4 9 1 3 1 12-1 7 2 20h2l1 3h3l1 2h2l2 6v5l3-1 3 3 2-7 2-27 2-9 2-1v5l-1 1-1 7-1 24 3 26 9 27 11 22 1 9 2 3v9l1 2v8l-4 8-7 8-4 7-7 9-5 4-6 9h-2v2h-2l-2 4-8 6-11 9-9 8-6 5h-2v2l-5 4h-2v2l-14 9-10 7-5 3h-2v2l-17 9h-3l-1 8 3 8 1 2v10l-2 2-4-1-5-3-12-11-5-4v-2l-3-1-9-11-8-11-14-24-15-30-14-31-13-38-1-1v-6l2 3 14 40 12 26 11 23 9 17 4 4 10-5 7-2v-9l3 4 10 19-8-16-14-31-8-20-4-12-4-10-6-21-5-30 10-4 6 3 10 4 4 1 10-6 6-2 4-4 8-4 4-5 5-1 5-4 3-1 6-6 2-11h2l1 7h4l1 4h2l1-2 1 2v-9l2-2-2-7v-28l-2-4 1-2-2-1-2-10v-17l1-7v-8h2l1 3v12h2l1-4 1 2h2l3 12 4 9 2-1 1 8-2 1-1 5 14 1 3 7v3h3l2-2 8-1v-13h-2l-2-7-2-2-1-14-2 10-4-4-2-6v-16l3-1 4 2 2-1v-11z" fill="#0F5C9A"/>
<path transform="translate(1081,727)" d="m0 0h19v2h2l1 2 1 35 67-1 1-36 2-1h19l1 1 1 31v19l-1 12-1 1-16 1-3-1-1 3v-5l-6 2-10 13-13 17-9 9-7 8-13 14-5 5-13 12-8 7-10 9-18 13-16 11-21 13-11 5-8 1-14-7-37-25-16-11-11-10-14-11-12-11-17-17-10-7h-13l-7-1-3-5-1-5-1-26 1-2 1-61 2-2h19l2 1 1 38 5-1 12-10 7-8 13-13 10-7h25l1 4h-2l-2 5-13 12-14 15-10 10-1 5 7 9 14 12 12 11 8 7 6 6 2-20 4-4h86l1-9-5-5-7-1h-42l-17-1-10-4-5-4-5-8-1-4v-17l4-8 9-8 8-3h91l2 1-2 5-8 12-2 2-74 1-5 3-1 8 6 4 15 1 51 1 10 2v2l4 2 6 8 2 8v11l-4 13-7 9-12 6-8 1h-74l-12-1-2 1-24 1 10 6 9 6 10 7 11 8 6 4 3 3 25 13 5 2h8l16-8 17-10 12-9 9-8 12-9 3-4-4-5v-90l1-7z" fill="#58606F"/>
<path transform="translate(989,140)" d="m0 0 4 1 16 10 28 15 38 19 21 9 16 6 22 9 30 11 26 8 30 8 16 3 26 6 18 3 2 2 1 36v76l-2 41-3 27-6 40-5 21-5 15-4 8-4-1-10-8-4-4 1-11 7-36 2-13 1-1 2-16 3-58 1-49v-36l-5-2-27-5-30-7-10-2v-2l-11-2-29-8-36-12-34-13-25-10-2-2 3-1 1-2-6-2-10-6-30-15-16-10-1-1z" fill="#AFB2B6"/>
<path transform="translate(989,188)" d="m0 0 5 1 35 17 3 2v2l9 2 4 2v2l5 1 25 10 13 5-3 1-6-2 3 5 4 5-2 9h-2l-3 15-1 17-1 7-1 6h-2l-1 3-10 8-7 6-3 7-2 9-3 4-11 4h-2v2l-18 8-14 8-12 9-5 5 1-4 1-1 1-16v-36l1-78 1-33z" fill="#0F5C9A"/>
<path transform="translate(1075,350)" d="m0 0h28l17 3 20 6 9 3v2l11 2 14 7 3 4-1 2-13-5-6-3-11 1-2 4 19 9 14 8 17 8 22 8 8 2 1-3v4h-7l-17-5h-4l5 5h-10l-18-3-14-2-16-5-15-6-12-7h-16l-14 4-9 5-5 2-13 12-8 11-6 12-3 9-2 13v10l4 21 2 10-5 5-10 2h-4l2 8h2l9 16 3 3v3l-7-1-7-4-9-2-8-3v-2h-6l-5-2-3-1-4-13v-4h-2l-1-24 2-18 4-15 3-8 7-16 12-16 8-10 8-7 16-9 10-5 16-4 7-3-1-1-17 1-4-3v-2l-11-3-9-1 3-3 21-5z" fill="#676D79"/>
<path transform="translate(960,426)" d="m0 0h1l2 9 2 5-1 19v11l2 16 5 18 2 4v3l3 1 2 5 14 21 3 2 2 4 8 7 4 5 8 7 16 13 13 8 17 11 19 10 36 17 8 4 9 6 7 12 10 24 10 18 5 8 7 5h6l9-5v-3l-4-2-12-8-6-5 1-4 5-1 25-1h33l31 2 22 5 6 2 15 1h27l6-3 2-3v-8l-1-8 2 3 1 4v10l-5 6-7 2-87 3-19 1-22 3-10 5-10 6-2 1h-7l-14-7-13-9-20-12-19-12-27-18-18-11-18-13-12-8-14-11-17-16-9-9-7-8-8-10-8-13-7-15-6-20-3-14-1-7v-27l3-18 4-15z" fill="#4A515F"/>
<path transform="translate(883,235)" d="m0 0 2 1-4 3 2 4h7v-2l7 1 4 1 2-5 9-2 1 3-2 4-8 2-1 4-11 1-1 1 2 1v2l-4 3-4 9-1 17v123h-2l-1 6-2 7-1 9-1 7-2 1-1 8-3-3-1-5-2-19-2-4-2 1-2 3-2-6h-3v-2h-2l-4-8-6-13-13-30-11-26-12-28-5-14-5-11-3-9v-3l-11 2h-8v-1l44-11 38-12z" fill="#2F96CC"/>
<path transform="translate(1068,341)" d="m0 0h30l22 2 5 2 8 1 4 2 13 3 15 8 14 7 10 8 13 10 9 7v2l4 2 8 10 1 1v5l-8-1-27-10-20-10-14-8-13-6 2-1 2-4 11-1 11 5 8 3-3-5-16-7-8-2v-2l-7-1-18-6-14-3-7-1h-28l-18 3-13 4 12 2 7 3 4 4h8l9-1 6 1v1l-9 3-13 4-8 2-21 11-9 7-7 8-11 15-4 7-7 14-5 17-2 12-1 18 1 17 5 19 3 11 6 10 4 6v6l-5-1-8-8-4-3-1-3-5-5-10-15-3-4-1-4-2-1-5-13-3-12-2-16v-11l1-19-3-7v-7l6-15 7-14 11-13 18-18 18-11 16-7 18-5z" fill="#FAFAFA"/>
<path transform="translate(1079,231)" d="m0 0 12 2 29 11 42 13 23 6v2l10 1-2 1-1 7-15 40-7 15-8 15-1 1-8-1-27-9-15-3-21-2-25 1-21 4-9 2 2-2 12-5 2-5 2-9 3-5h2l2-4 8-6 5-4 1-2h2v-11l1-4 1-15 2-10 2-5h2v-5l1-4-6-7z" fill="#093A74"/>
<path transform="translate(987,139)" d="m0 0h2l1 40 12 8 11 6 7 3 16 8 16 9-1 3h-6v-2l-11-3-2-1v-2l-5-2-33-16-3-2-7 1-32 16-19 10-28 12-25 10-22 9-38 12-47 12-22 6-12 2-1 21v55l2 61 3 48h-2l-2-8-4-35-4-68v-81l5-2 30-5 36-9 23-7 28-10 19-8 4-2h3v-2l5-3 2-5v-5l-4-6h-9l-6 2-9 2-25 8-21 6-57 18-43 10h-2l-1 58-1 9h-1l-1-6v-64l1-1h5v-2l26-5 38-11 10-1v-2l10-2 4-2 9-2 7-3 16-5 12-5 10-5 12-4 10-5 15-6 7-3 24-11 8-5 16-8 11-5h2v-2l5-1v-2l4-2h3v-2l8-5h3v-2z" fill="#FBFBFB"/>
<path transform="translate(1224,237)" d="m0 0 8 1 30 7 18 3 2 2 1 36v76l-2 41-3 27-6 40-5 21-5 15-4 8-4-1-10-8-4-4 1-11 7-36 2-13 1-1 2-16 3-58 1-49v-36l-5-2-27-5-30-7-10-2v-2l17 2 4-2h11l7 1h11l3-7 2-8 2-1-1-5-17-5z" fill="#646A76"/>
<path transform="translate(456,718)" d="m0 0h25l1 1v46h64v-46l1-1h25v115l-4 1h-18l-3-1-1-6v-38h-64v27l-1 17-1 1h-19l-5-1-1-105z" fill="#0F5D9B"/>
<path transform="translate(1485,729)" d="m0 0h46l18 1 13 3 12 6 10 9 6 9 4 13v19l-4 12-6 8-8 9-11 7-15 4-8 1h-61l-1-1-1-65v-32l1-2zm19 20-1 2v54l2 3h41l10-3 9-6 5-8 1-3v-18l-4-8-7-7-9-4-10-2z" fill="#1B7CB8"/>
<path transform="translate(986,128)" d="m0 0 6 1 23 14 11 7 23 12 27 13 24 11 37 14 36 13 27 8 42 10 35 6 11 2-3 2-1 9 1 9v40l1 37v24l-2 15-2 36-2 11h-1l1-19 2-41v-76l-1-36-6-2-23-4-24-6-11-2-41-11-26-9-18-7-50-20-22-10-19-10-29-15-16-10-7-4-7 1v2l-9 5h-2v2l-7 2v2l-5 1v2l-16 8-19 9-5 3-21 10-7 3-24 10-10 4-11 5-13 5-8 3-15 5-4 2-7 2-6 2h-7v2l-16 4-32 9-32 6v124l1 22v17h-1l-2-14-2-21-1-6 1-12v-110l3-5 9-2 4-3 7-1 3 1 3-3 4-2 7-1 10-2 1-3 35-10 27-9 43-16 29-12 16-8 33-16 20-11 14-9z" fill="#103E73"/>
<path transform="translate(1286,729)" d="m0 0h68l1 2-9 16-2 2-64 1v19h57l1 1v18l-1 1h-57v18l74 1-2 6-8 15-6 1h-81l-1-2v-98z" fill="#1B7BB8"/>
<path transform="translate(644,727)" d="m0 0 16 1 14 5 13 9 8 9 6 14 2 8v14l-3 11-7 12-11 11-12 7-11 3-7 1h-14l-13-3-12-6-9-8-9-12-5-10-1-6v-13l2-9 6-12 7-9 11-9 11-5 8-2zm1 21-9 2-10 6-7 6-4 8-2 7 1 11 6 12 9 6 7 3h20l10-4 9-8 3-5 2-10-1-11-5-10-9-8-9-4z" fill="#1B7BB8"/>
<path transform="translate(766,728)" d="m0 0h24l13 5 16 10 5 4 5 11 4 13 1 10-3 16-6 11-9 10-9 7-12 5-10 2h-18l-15-4-11-6-7-7-7-10-6-12-2-9v-9l4-13 6-11 9-10 7-6 12-5zm8 20-9 2-10 6-8 8-3 7-1 5v8l2 9 4 6 9 7 8 3 7 1h10l10-3 9-6 5-7 2-7v-17l-4-8-8-8-10-5z" fill="#1A7BB8"/>
<path transform="translate(1082,728)" d="m0 0h18l3 3 1 35 67-1 1-36 2-1h19l1 1 1 31v19l-1 12-1 1-16 1-3-1-1 3v-5l-4-1-55-1h-11l-1 8-1 24-2 5-1 1h-12l-4-4-1-18v-75z" fill="#FBFBFB"/>
<path transform="translate(874,790)" d="m0 0 5 1 11 8 10 9 5 4 5 5 11 9 4 4h-25l-6-1 3 7 13 13v2l4 2 12 11 11 9 14 11 18 13 17 10 15 10 4 2h6l11-6 19-12 17-12h2v-2l9-7 13-11 10-9 13-12 17-17 1-2h2l2-4 11-13 10-12 7-9 2-1h11l-4 6-21 27-8 8-7 8-13 14-5 5-13 12-8 7-10 9-18 13-16 11-21 13-11 5-8 1-14-7-37-25-16-11-11-10-14-11-12-11-17-17-10-7z" fill="#092047"/>
<path transform="translate(1090,606)" d="m0 0 11 4 8 3 13 4 6 1 11 2 15 6 12 5 13 3 15 4 20 4 24 6 18 5 7 3 11 4 12 6 3 4-2 1-54-3h-65l-5 3v6h2l1 3 13 8 1 3-1 4-3 1-6-4-10-14v-2h-2l-5-8-13-29-9-9-10-6-26-12v-2l-6-2z" fill="#FBFBFB"/>
<path transform="translate(1369,729)" d="m0 0 23 1v77l74 1 1 3-8 17-2 2h-87l-1-1z" fill="#0C3D75"/>
<path transform="translate(1103,397)" d="m0 0h15l3 3v6l-12 24-8 14-8 13-7 11-12 17-5 6-7 10-4-1-4-8-4-17-1-8v-13l4-16 5-10 7-9 7-7 5-2v-2l16-8z" fill="#093A74"/>
<path transform="translate(1054,729)" d="m0 0h11v4l-8 12-2 1-74 1-4 2-2 5v7l6 4 3 1 63 1 10 5 6 7 2 6v9l-2 4-4 1-9-4-4-8-4-3-4-1-65-1-8-4-8-9-1-5h-2v-17l4-8 6-6 8-3z" fill="#FCFCFC"/>
<path transform="translate(1031,609)" d="m0 0 5 2 4 3 10 4 11 6 7 5 10 5 13 5 10 3 10 4 22 6 8 6v2h4v-6l2 2 7 16 13 22 7 5h6l9-5v-3l-4-2-12-8-6-5 1-4 5-1 25-1h33l31 2 22 5 6 2 15 1h27l6-3 2-3v-8l-1-8 2 3 1 4v10l-5 6-7 2-87 3-19 1-22 3-10 5-10 6-2 1h-7l-14-7-13-9-20-12-19-12-27-18-18-11-18-13-12-8z" fill="#4A515F"/>
<path transform="translate(1259,313)" d="m0 0h2l2 5 2 11 1 4 5 9h7l1 2v55l-3 36-5 33-4 17-2 5-3 2-16 4-2-1 1-15 5-31 5-45 3-42z" fill="#B0B3B6"/>
<path transform="translate(1188,473)" d="m0 0h5l17 11 10 11 8 7 4 5 5 3 11 11v2l3 1 6 9 3 5 8 7 10 12 7 11 4 5 1 3 2 1v3l3 1v3l4 2 10 16 8 13 2 7h2l9 17 1 5h2l4 8 2 18-4-1-8-9-14-20-16-23-10-13-12-18-12-16-7-10-10-14-21-27-10-13-7-10-4-6-16-16z" fill="#F9F9F9"/>
<path transform="translate(1214,513)" d="m0 0 4 2 7 9 7 11 9 13 16 26 14 20 7 11 13 19 9 12 11 14 7 9v4l-5-1-4-2v-2h-2l-5-5-7-6-12-9v-2l-4-2-8-9-8-7-10-8-3-2v-2l-4-2-5-4v-2l-4-2-7-7-2-1v-2l-3-1v-2l-4-2-5-4-1-4 4-16v-18l-3-16-2-5z" fill="#666C78"/>
<path transform="translate(975,728)" d="m0 0h91l2 1-2 5-8 12-2 2-74 1-5 3-1 8 6 4 15 1 51 1 9 4 7 6 4 10v14l-5 12-8 9-10 4h-45l-42-1-2-3v-11l2-7 1-1h78l8-2 1-9-5-5-7-1h-42l-17-1-10-4-5-4-5-8 1-4 4 8 8 7 5 2 65 1 7 3 4 5 1 5 11 3h2l1-4v-9l-4-9-6-5-7-3-63-1-8-4-2-2v-7l3-6 4-2 74-1 4-4 6-9v-2l-93 1-6 2 3-3z" fill="#AFB2B6"/>
<path transform="translate(986,135)" d="m0 0 4 1-1 2h2v2l-9 1v2l-9 5h-2v2l-7 2v2l-5 1v2l-16 8-19 9-5 3-21 10-7 3-24 10-10 4-11 5-13 5-8 3-15 5-4 2-7 2-6 2h-7v2l-16 4-32 9-32 6v124l1 22v17h-1l-2-14-2-21-1-6 1-12v-110l3-5 9-2 4-3 7-1 3 1 3-3 4-2 7-1 10-2 1-3 35-10 27-9 43-16 29-12 10-5 3 1 12-6 3 1v1l6-2 17-9 19-9 15-10 5-3h3l1-3z" fill="#124176"/>
<path transform="translate(922,728)" d="m0 0h25l1 4-6 4-8 8-5 3-14 15-10 8-4 5v6l2 4-1 5-3 1v2l-5 1-10-6-12-5-14-3-2-1-2-10-1-13v-25l1-1 17-1 2 4-1 37 6-1 11-8 3-3 2-5 18-18z" fill="#FAFBFB"/>
<path transform="translate(1590,790)" d="m0 0h2v6l-5 10-11 12-11 7-15 4-8 1h-61l-1-1v-30l4-1 7 1 6-2 3-3 3 1 1 10 1 2h41l10-3 9-6 3-5h3v4h7l8-4z" fill="#0A3C75"/>
<path transform="translate(853,728)" d="m0 0h19l2 1 1 38 5-1 12-10v3l-9 8-7 4-5-1 1-37-1-3-17 1v25l2 23 19 4 12 6 7 4h5v-2l3-2-1-6-1-2v-6l7-8 11-9 13-14 2 1-7 7-7 8-15 15v5l11 12 8 7 12 11 10 9 5 5-1 1-23 1-6-2-9-7-4-5-9-7-11-10-13-7-1 2-1 31-2 5-10 1v2h-6l-3-5-1-5-1-26 1-2 1-61z" fill="#AFB2B6"/>
<path transform="translate(935,837)" d="m0 0 10 5 16 12 19 11 21 11 10 5v36l-1 2-6-1-17-11-18-11-17-13-10-9-3-4 3-9 1-7-1-6-7-9z" fill="#B0B3B6"/>
<path transform="translate(1075,350)" d="m0 0h28l17 3 20 6 9 3v2l11 2 14 7 3 4-1 2-13-5-6-3-11 1-2 4 19 9 14 8 17 8 22 8 8 2 1-3v4h-7l-17-5h-4l5 5h-10l-22-4-19-5-10-4v-3l16-2 7-3 1-1-16-8-11-5-19-6-10-2h-18l-9 1 3-2-1-1-17 1-4-3v-2l-11-3-9-1 3-3 21-5z" fill="#B0B3B6"/>
<path transform="translate(1217,730)" d="m0 0h21l1 5v94h-24v-91l1-7z" fill="#0F5D9B"/>
<path transform="translate(748,229)" d="m0 0h7l-3 3-10 2-7 1-6 2-1 3-6-1h-4l-1 2-3 2-9 2-2 4v115l-1 11 1 2 3 30v5h2l4 45 3 23 5 27 11 43 2 7-1 4-7-24v-5h-2l-3-4-1-2h-1l-1-8h-2l-2-9h-3l-6-38-4-37-3-44-1-25-1-63v-34l1-27 2-2z" fill="#10274C"/>
<path transform="translate(1046,498)" d="m0 0h2l7 14 10 14 6 7 19 14 13 7v2l9 2 12 6 3 1 1 3-7 3-4 7-2 1h-8l-13-5-15-8-11-8-10-9-5-5-9-10-7-10-5-9v-2h-2l-2-4v-4l12-2 5-3z" fill="#FAFAFA"/>
<path transform="translate(695,792)" d="m0 0h6l-1 6-7 12-11 11-12 7-11 3-7 1h-14l-13-3-12-6-9-8-9-12-2-6 15 2 7-4h3l3 5 10 6 5 2h20l10-4 9-8 3 3 10-2 6-2z" fill="#0A3D77"/>
<path transform="translate(1257,796)" d="m0 0 2 3 3 3 13-1v-2l4-1 1 9 74 1-2 6-8 15-6 1h-81z" fill="#0C3C75"/>
<path transform="translate(1081,727)" d="m0 0h19v1l-18 1v75l1 18 3 3h12l2-5 1-24 2-8 11-1 55 1v3h-12l-5 5-8 10-9 10-10 13h-2l-2 4-24 24-8 7-11 10-11 9-5 4-2-1 13-12 9-7 16-15 7-7 8-7 7-8 4-5 3-5 8-11 7-9v-3l-4 1-12 12-9 11-4 6h-2v2l-5 3-20 3-4 1-9 7-5 5-14 11-20 11-11 6-10 5-5-1v-1l8-2 14-7 17-10 12-9 9-8 12-9 3-4-4-5v-90l1-7z" fill="#575F6E"/>
<path transform="translate(942,451)" d="m0 0h1v40l3 19 8 23 9 19 11 18 9 11 1 6-9 10-8 10-8 7-7 8-4 5-8 7-17 16-28 24-14 10-18 14-11 7-14 7 3 10 4 11v14l-3 3-5-1-3-3-3-5-6-7-5-5-7-6-7-8-9-11-9-14-1-4 3 3 8 12 9 10 3 3v2l4 2 9 9 6 5 4 2 4-1v-10l-3-7-1-8 2-3 16-8 4-1v-2l15-9 5-4 9-6h2v-2l5-4h2v-2l13-10 7-7 8-6 9-7 1-2h2v-2h2l2-4 6-8 5-4 10-15 7-9 2-5v-8l-1-6-1-7-1-4-1-6-11-22-9-27-3-26 1-24z" fill="#093A74"/>
<path transform="translate(829,794)" d="m0 0h1l-1 7-6 10-10 10-12 7-16 4h-18l-15-4-11-6-7-7-7-10v-2l7-1 8-1v-3l5-2 8 7 8 4 10 2h10l10-3 11-6 2 1v4l10-3h4v-2h3v-2h3v-2z" fill="#093D77"/>
<path transform="translate(1256,730)" d="m0 0 5 1-1 2v37l6 1 1-1 10 1 1-1h60v18l-1 1h-57l-1 9-4 1v2l-2 1-11 1-4-4-1 29h-1z" fill="#105E9C"/>
<path transform="translate(1082,728)" d="m0 0h18l3 3 1 35 67-1 1-36 2 1-1 37-4 2-28 1h-21l-18-2-2-2v-14l1-22h-18v26l3 27 3 3 10-2 1-1h59l13-1 20-6 2-16h1v19l-1 12-1 1-16 1-3-1-1 3v-5l-4-1-55-1h-11l-1 8-1 24-2 5-1 1h-12l-4-4-1-18v-75z" fill="#AFB2B6"/>
<path transform="translate(733,561)" d="m0 0 2 3 14 40 12 26 11 23 9 17 4 4 10-5 7-2v-9l3 4 10 19 7 10 7 13 4 4 3 12 2 3v10l-2 2-4-1-5-3-12-11-5-4v-2l-3-1-9-11-8-11-14-24-15-30-14-31-13-38-1-1z" fill="#646A77"/>
<path transform="translate(1031,609)" d="m0 0 5 2 4 3 10 4 11 6 7 5 10 5 13 5 10 3 10 4 22 6 8 6v2h4v-6l2 2 7 16 13 22 5 5-6-2-9-5-5-2-13-8-21-13-38-25-18-11-18-13-12-8z" fill="#575E6D"/>
<path transform="translate(1021,473)" d="m0 0 7 1 13 2 6 19-1 5-6 4-9 1h-3l2 8h2l9 16 3 3v3l-7-1-7-4-9-2-8-3v-2h-6l-5-2-3-1-4-13v-4h-2v-13l10 3 15 6 7 5-4-22z" fill="#686E7A"/>
<path transform="translate(1369,729)" d="m0 0 23 1v42l-2 21-2 6-3 2-12 1v2l-4 1z" fill="#105D9B"/>
<path transform="translate(1e3 430)" d="m0 0 2 1 1 3 13 5 1 1v10l-1 9v20l5 22v5l-8-6-17-7-8-3-1-4 1-18 3-16 4-13z" fill="#4A515F"/>
<path transform="translate(944,733)" d="m0 0 2 1-5 6-8 7-16 17-10 10-1 5 7 9 14 12 12 11 8 7 6 6 2-20 4-4 82 1-4 2h-78l-2 7v11l1 2 42 1h45l10-4 7-8 5-12v-14l-4-10-7-6-2-2h4v2l4 2 6 8 2 8v11l-4 13-7 9-12 6-8 1h-74l-12-1-2 1-24 1 7 4-2 1-4-1-8 1v2h-13l-4-1 1 7h2v2h2l4 7h-2l-7-8-5-5-4-5v-4h30l-8-6-11-9-12-12-14-10-5-2v39l-4 1h-9l-1-3 10-2 1-4 1-31 2-3 13 7 14 13 9 7 4 5 7 5 10 1 18-1-5-5-15-14-12-11-8-7-6-7v-5l7-8 8-7 16-17z" fill="#585E6C"/>
<path transform="translate(1274,552)" d="m0 0h3v2l3 1 2 5h2l7 10 3 6 9 10 5 8 7 2 14 22 8 15 8 19 3 10 1 9-2 8-5 6-8 4-10 2-33 2h-12l4-2 3-1-1-2h2l1-2 6-2 10-1 26-1 7-2 4-5v-10l-1-7h-2l-5-12v-2h-2l-8-16-2-6h-2l-7-14-10-16-5-7-2-1-1-3-2-1v-3l-3-1-4-7-7-10z" fill="#0B234B"/>
<path transform="translate(990,142)" d="m0 0 11 7 17 10 11 8v2h2l2 3 1 7-4 13-1 2h-7l-16-7-14-8-2-2z" fill="#666C78"/>
<path transform="translate(1175,725)" d="m0 0h18l2 3v18l3 1-2 82-8 1h-13l-1-1-1-10v-24l1-3 19-1 1-12v-19l-1-31h-21v36l-1 1h-67l-1-2-1-35-2-1h3l1 2 1 25 1 9h64l1-36 1-2z" fill="#0A3B75"/>
<path transform="translate(605,743)" d="m0 0 2 1-2 4v9l14-2 9-4 4-1v3l-11 8-4 6-3 10 1 11 2 7-10 5-14-2-2-2-2-9v-13l2-9 6-12 7-9z" fill="#105E9B"/>
<path transform="translate(1338,936)" d="m0 0h8l3 9 5 17v3h2l2-6 8-17 2-5 4 2 11 25 2-3 6-24 3-1h7l-2 11-12 36-3 1-10-23-3-6-3 3-11 23-2 4h-2l-14-44z" fill="#111D49"/>
<path transform="translate(1214,513)" d="m0 0 4 2 7 9 7 11 9 13 16 26 5 7 3 7 4 7-4-1-6-5-5-5-16-12-7-5-4-4-6-5-1-18-1-1-3-16-2-5z" fill="#4B5260"/>
<path transform="translate(1057,391)" d="m0 0 4 1 1 5 8 1 7-2-5 5-12 11-8 11-6 12-4 12-2 1-10-6-5-2v-9l4-10 10-13 15-15z" fill="#B0B3B6"/>
<path transform="translate(554,936)" d="m0 0 5 2 12 11 10 9 11 9 3 2v-32h9v48l-4-1-8-8-28-22v31l-1 1h-7l-1-1z" fill="#081F46"/>
<path transform="translate(547,718)" d="m0 0h25l-2 1v40l-3 1v2h-9l-3 1v2l-4 1-5-2v-45z" fill="#1A7BB8"/>
<path transform="translate(928,832)" d="m0 0 9 3 9 6 10 7 11 8 6 4-2 1-14-9-12-9-9-5 3 5 5 7v9l-4 9 2 4 4 5 5 5-5-1-16-13-15-13-4-5-3-4v-2h-2v-2h-2l-2-4 1-3 17 1v-2z" fill="#646A77"/>
<path transform="translate(1216,936)" d="m0 0h16l9 4 6 7 3 9v10l-3 8-6 8-8 4h-18l-8-5-7-8-2-4-1-9 2-9 4-6 8-7zm5 6-8 4-5 6-2 6v8l3 6 5 5 5 3h11l9-6 3-6 1-8-3-9-4-5-5-3z" fill="#121E4A"/>
<path transform="translate(1467,936)" d="m0 0h27l8 2 5 4 3 7v10l-4 6-6 5 2 6 5 7v3h-6l-5-4-5-8-2-1h-14v12l-1 1h-6l-1-1zm8 6-1 1v22l1 1h10l11-1 5-4 1-3v-8l-3-6-5-2z" fill="#101C48"/>
<path transform="translate(728,752)" d="m0 0h2l-1 7 2 4 8-1 10-6 4 1-3 5-4 6-2 8v8l2 9 1 3-5 2v3l-9 2h-7l-5-10-2-9v-9l4-13z" fill="#105E9B"/>
<path transform="translate(1092,936)" d="m0 0h17l8 4 3 5-1 4-4-1-9-5h-10l-8 5-4 7-1 9 4 10 5 4 2 1h11l7-4 2-6-14-2v-6l2-1h21v9l-3 8-5 6-6 3-13 1-9-3-7-6-4-7-1-4v-11l4-10 4-5 6-4z" fill="#111C49"/>
<path transform="translate(781,236)" d="m0 0h11v2h2l1 14-4 4-32 8-13 1-2-2-1-11 4-4 10-4 7-2 12-5z" fill="#666C78"/>
<path transform="translate(986,128)" d="m0 0 6 1 23 14 11 7 4 3-1 2-6 3-9-3-18-11-5-4v-2h-2v-2l-6 1-3 3-11 6-14 9-17 8-17 9-7 2v-2l-5 2-9 4-2-1 3-3 35-17 20-11 14-9z" fill="#0C2248"/>
<path transform="translate(1059,936)" d="m0 0h2v48l-4-2-10-9-12-9-13-10-1 31-1 1h-6l-1-7v-42l4 2 12 11 22 16 3 1v-30z" fill="#0B234A"/>
<path transform="translate(456,718)" d="m0 0h25l1 1v46h-1l-1-10-1 1h-6l-3-2-6 1-5 1-1-1-1-19-1 11h-1v-22z" fill="#1A7AB7"/>
<path transform="translate(1010,376)" d="m0 0h2l-1 3-10 8-11 13-11 16-6 12-4 14-2 12v27l5 22-1 3-4-12-3-15-1-9v-11l1-19-3-7v-7l6-15 7-14 9-11 5 1 7-3 5-2 7-5z" fill="#B0B3B6"/>
<path transform="translate(1217,730)" d="m0 0h21l1 5v60h-1l-1-31-1 5h-2l-1 3-11-1-6-11-1-6v-16l1-7z" fill="#1D7DB9"/>
<path transform="translate(925,936)" d="m0 0 7 1 1 20 29 1v-21h8v48l-1 1h-6l-1-1v-20h-29l-1 21h-6l-1-1z" fill="#0A2249"/>
<path transform="translate(735,936)" d="m0 0h23l11 2 6 7 2 5v10l-5 8-7 4-23 1-1 12-1 1h-6l-1-48zm12 6-6 1v22l1 1h18l5-2 3-3 1-8-3-7-3-3-5-1z" fill="#111C48"/>
<path transform="translate(790,936)" d="m0 0h7l1 21 29 1v-22l7 1 1 2v46l-1 1h-5l-2-2v-19h-21l-9-1v22h-7l-1-49z" fill="#0D214F"/>
<path transform="translate(456,795)" d="m0 0 2 3h23v35l-1 1h-19l-5-1z" fill="#0A3C75"/>
<path transform="translate(822,751)" d="m0 0 5 2 5 14 2 10-2 16-2 4-1-2-3 1v2h-3v2h-3v2l-11 3h-3l-2-4-2-1 4-6 2-7v-17l-4-8-3-3v-2l4 2 5 7 4 3v2l12-4-1-9z" fill="#105E9B"/>
<path transform="translate(695,758)" d="m0 0 4 2 4 13v14l-1 5-7 1-3 3-11 4-5-1-1-4 3-7 1-12-3-10-2-3v-3h5v2l7-3z" fill="#105E9B"/>
<path transform="translate(1563,756)" d="m0 0 11 3 9-1 1-2h5l3 6 2 8v19l-2 4v-3l-7 5-9 3-5-1v-4h-2l1-5v-18l-4-8-3-3z" fill="#105E9B"/>
<path transform="translate(571,784)" d="m0 0h1v49l-4 1h-18l-3-1v-34l5 1h11l7-4z" fill="#0B3C75"/>
<path transform="translate(1280,249)" d="m0 0 2 1 1 36v76l-2 41-3 27-6 40-5 21-5 15-4 8-4-1-10-8-4-4 1-11 7-36 2-13h1v8l-7 46 11-2 10-3 2-9 5-25 4-30 2-27 1-1 1-22z" fill="#59606D"/>
<path transform="translate(1500,757)" d="m0 0 3 1v37l-4 1-3 3-8 1-8-1v-39l4 2v2l5-1 10-4z" fill="#0F5C9A"/>
<path transform="translate(1165,935)" d="m0 0h9l11 3 1 1-1 7-9-3h-10l-6 4v6l9 3 12 3 6 4 3 5v8l-4 6-4 3-12 2-13-2-5-5 2-5 4 2 5 2h13l5-3v-9l-18-4-6-3-4-5-1-8 3-7 6-4z" fill="#131E4A"/>
<path transform="translate(887,936)" d="m0 0h15l7 3-1 7-5-2-3-1h-12l-4 5 2 6 18 5 8 6 2 3-1 9-6 7-5 2h-18l-8-3 1-7 5 1 5 2 10 1 6-3 1-6-2-4-18-5-6-4-3-7 1-7 4-5z" fill="#0F1B48"/>
<path transform="translate(1430,936)" d="m0 0h2l11 24 7 14 4 11-5 1-4-4-2-4h-26l-4 7-6 1-1-3 14-29 7-14zm0 15-9 16-1 3h19l-3-10-5-9z" fill="#13204B"/>
<path transform="translate(1523,936)" d="m0 0h31l1 1v5l-24 1v14l20 1v6h-20v15h24l1 1v5l-1 1h-31l-1-7z" fill="#1F3557"/>
<path transform="translate(516,936)" d="m0 0 3 1 9 19 8 14 5 11 1 5h-6l-3-3-2-6h-20l-7 2-3 6h-8l1-5 17-33zm-1 16-7 15v3h18l-6-15-2-3z" fill="#101D49"/>
<path transform="translate(1369,729)" d="m0 0 23 1-2 2-2 26-4 7-2 2-9 2-2-1v-3h-2z" fill="#1A7BB8"/>
<path transform="translate(1139,796)" d="m0 0 4 1-1 4-10 13-8 12-4 1-2 4-6 7h-2v2h-2v2l-16 8-2-1-2-4-7-3 3-7 6-2 16-2 5-2v-2l3-3 8-10 11-12z" fill="#656B77"/>
<path transform="translate(1105,790)" d="m0 0h34l-2 4-8 7-12 13-10 11h-3v-34z" fill="#061E46"/>
<path transform="translate(1183,470)" d="m0 0h5l-4 1 8 10 6 11 5 13v9l2 8 1 10v11l-4 13 1 5 10 7-3 8-3 5-4 2-5-1-2-2-3-8-1-3h-6l3-2 5-3 3-3 5-12 1-4v-14l-4-16-9-24-7-17z" fill="#5F6673"/>
<path transform="translate(1283,936)" d="m0 0h4v7h-18v15h18v6l-1 1h-18l1 20-1 1h-6l-2-4v-45z" fill="#13284B"/>
<path transform="translate(794,695)" d="m0 0 7 7 19 1 9 1 4 4 3 12 2 3v10l-2 2-4-1-5-3-12-11-5-4v-2l-3-1-9-11-4-5z" fill="#4A515F"/>
<path transform="translate(1106,654)" d="m0 0 11 5 3 1 1 2 5 1v2l6 1 11 5 5 2 5 3-1-6 4 5 9 16 5 5 2 3-6-2-9-5-5-2-13-8-21-13-15-10v-4z" fill="#616874"/>
<path transform="translate(1339,658)" d="m0 0 2 3 1 4v10l-5 6-7 2h-77l-7-1-2-7-5-2-14-1h-25l-32 1v-1l5-1 25-1h33l31 2 22 5 6 2 15 1h27l6-3 2-3v-8z" fill="#656B77"/>
<path transform="translate(1021,473)" d="m0 0 7 1 13 2 6 19-1 5-6 4-13 2-4-13-2-11z" fill="#B0B3B6"/>
<path transform="translate(1215,797)" d="m0 0 1 3 4 1 2 2h11l5-2v28h-23z" fill="#093973"/>
<path transform="translate(1294,936)" d="m0 0h39l1 1v5l-15 1-1 42-1 1h-6l-1-1-1-42h-15l-1-1v-5z" fill="#14294D"/>
<path transform="translate(615,936)" d="m0 0h41l1 1v5l-17 1 1 41h-7l-1-1-1-39-18-1v-6z" fill="#072048"/>
<path transform="translate(1175,725)" d="m0 0h18l2 3v18l3 1-1 36-1 2-2 13-10 4-7 1-2-3-1 19h-1v-24l1-3 19-1 1-12v-19l-1-31h-21v36l-1 1h-67l-1-2-1-35-2-1h3l1 2 1 25 1 9h64l1-36 1-2z" fill="#535C6A"/>
<path transform="translate(1338,936)" d="m0 0h8l3 9 5 17v3h2l2-6 6-12 3 3-1 6h2l-2 6-9 19-2 4h-2l-14-44z" fill="#0F254A"/>
<path transform="translate(711,457)" d="m0 0h1l3 23 5 27 11 43 2 7-1 4-7-24v-5h-2l-3-4-1-2h-1l-1-8h-2l-2-9h-3l-5-30v-5h2v-3l2-2 2-1z" fill="#1E4472"/>
<path transform="translate(1109,382)" d="m0 0h14l13 1 20 5 2 2-8 3h-22l-2 1-9-5h-16l-14 4-4 1-2-3-4-1 9-4 11-3z" fill="#4A515F"/>
<path transform="translate(1022,447)" d="m0 0 10 3 7 2 2-1v16l2 11-1 4-2-5-15-3-4-1v6h-1v-20z" fill="#656B77"/>
<path transform="translate(1216,936)" d="m0 0h16l3 1v2l-4 2-1 1-12 2-6 4-4 6-1 4v8l3 6 2 3-1 6h-4l-7-8-2-4-1-9 2-9 4-6 8-7z" fill="#0F1B48"/>
<path transform="translate(1220,540)" d="m0 0h1l1 18 5 4 5 5 8 6 12 8 7 6v2l4 2v2l5 1-6-9 1-2 8 11 9 17-2 1-8-7-9-6v-2l-4-2-7-6-4-4-12-9-14-12z" fill="#59606F"/>
<path transform="translate(1102,960)" d="m0 0h21v9l-3 8-5 6-6 3-13 1-9-3-2-1v-2h3l-4-7 1-4 4 6 5 3h11l7-4 2-6-14-2v-6z" fill="#111D49"/>
<path transform="translate(703,248)" d="m0 0 2 2 1 123 1 22v17h-1l-2-14-2-21-1-6 1-12v-110z" fill="#225E8F"/>
<path transform="translate(960,426)" d="m0 0h1l2 9 2 5-1 19v20l-1-3-9 3-1-1v-24l5-22z" fill="#646A76"/>
<path transform="translate(1190,591)" d="m0 0 5 1 1 7 4 2v2h2v2l4 2 4 3 1 5-4 1-24-10-10-5-1-5 12-4z" fill="#FDFDFD"/>
<path transform="translate(890,957)" d="m0 0h7l9 3 7 6 1 7-3 7-6 5-3 1h-18l-8-3 1-7 5 1 5 2 10 1 6-3 1-6-4-9-10-3z" fill="#111D49"/>
<path transform="translate(735,936)" d="m0 0h23v1l-18 1 1 4h6v1h-6l1 22 12 1-4 2-5 1-1 3-2 1-1 12-1 1h-6l-1-48z" fill="#142A4F"/>
<path transform="translate(1091,368)" d="m0 0h18l17 4 12 4v2l-11-1-7 1v-2h-28l-5 2h-8v-2h-7l-10 2 3-3 21-6z" fill="#58606F"/>
<path transform="translate(1415,965)" d="m0 0 1 2 3 1v3h20v-3l8 1 6 12 1 4-5 1-4-4-2-4h-26l-4 7-6 1-1-3 8-17z" fill="#101B48"/>
<path transform="translate(987,936)" d="m0 0h8v50h-6l-2-1z" fill="#142B51"/>
<path transform="translate(669,936)" d="m0 0h7l1 1v49h-7l-1-2z" fill="#0C1645"/>
<path transform="translate(1054,768)" d="m0 0h4v2l4 2 6 8 2 8v11l-4 13-7 9-12 6h-66l-25-1-1-1v-12h1l2 10 42 1h45l10-4 7-8 5-12v-14l-4-10-7-6z" fill="#575F6D"/>
<path transform="translate(1274,552)" d="m0 0h3v2l3 1 2 5h2l7 10 3 6 9 10 5 8 3 1 2 5 3 9 8 13 5 10 4 7 6 14v5l-2-3-4-9v-2h-2l-8-16-2-6h-2l-7-14-10-16-5-7-2-1-1-3-2-1v-3l-3-1-4-7-7-10z" fill="#1E4472"/>
<path transform="translate(854,936)" d="m0 0h6l1 1v49h-7l-1-49z" fill="#081343"/>
<path transform="translate(1081,727)" d="m0 0h19v1l-18 1v75l1 18 3 3h12l2-5 1-24 2-8 11-1 55 1v1l-24 1-40-1-1 4-1 32h-2v2l-3 1h-14l-4-4-1-89 1-7z" fill="#5E6572"/>
<path transform="translate(1165,935)" d="m0 0h9l11 3 1 1-1 7-9-3h-10l-6 4v6l4 3-1 2h-2l1 4-5-2-4-5-1-8 3-7 6-4z" fill="#131F4A"/>
<path transform="translate(739,346)" d="m0 0h1l1 37 2 33 7 63 4 25 10 41 5 21-1 4-9-35-9-38-4-28-5-49-2-33z" fill="#2E96CD"/>
<path transform="translate(595,937)" d="m0 0h9v25l-1 18-2-3-6-7z" fill="#10264B"/>
<path transform="translate(1198,558)" d="m0 0 4 5 11 5-3 8-3 5-4 2-5-1-2-2-3-8-1-3h-6l3-2 5-3 3-3z" fill="#4B5260"/>
<path transform="translate(993,490)" d="m0 0 10 3 15 6 8 5 2 2 3 9-10-6-11-4-3-1v-2l-10-1-2 1-2-5z" fill="#58606F"/>
<path transform="translate(1079,746)" d="m0 0h1l1 78 3 3 7 2-2 2-5 3-9 8-8 7-13 10-20 11-11 6-10 5-5-1v-1l8-2 14-7 17-10 12-9 9-8 12-9 3-4-4-5z" fill="#4A515F"/>
<path transform="translate(1157,790)" d="m0 0h11v1l-12 1-2 4-10 13-4 5-3 3h-2l-2 4-7 9-12 12-5 6-5 4-1 2h-2v2l-8 7-12 11-4 1-1 3-4 3h-2l-1 3-18 13-5 3-2-1 14-10h2v-2l9-7 13-11 10-9 13-12 17-17 1-2h2l2-4 11-13 10-12 7-9z" fill="#093A74"/>
<path transform="translate(615,936)" d="m0 0h41l1 1v5l-18 1-4-1-3 1h-18v-6z" fill="#1F2B53"/>
<path transform="translate(828,937)" d="m0 0h6l1 2v46l-1 1h-5l-1-4 1-23-1-1z" fill="#0D1846"/>
<path transform="translate(923,827)" d="m0 0h28v1l-24 1 7 4-2 1-4-1-8 1v2h-13l-4-1 1 7h2v2h2l4 7h-2l-7-8-5-5-4-5v-4h30z" fill="#515867"/>
<path transform="translate(1060,742)" d="m0 0 1 2-4 5-21 1-54 1-4 2v7l5 3 66 2 5 2-3 1-3-1-51-1-15-1-6-4-1-1 1-8 3-3 3-1 74-1z" fill="#565F6E"/>
<path transform="translate(1196,756)" d="m0 0h1v27l-1 2-2 13-10 4-7 1-2-3-1 19h-1v-24l1-3 19-1 2-31z" fill="#1465A2"/>
<path transform="translate(769,570)" d="m0 0 2 3v2h2l8 26 4 9 6 16 11 26 9 19 5 9-1 2-10-18-2-6h-2l-11-26-10-24-6-18-5-16z" fill="#258AC3"/>
<path transform="translate(1283,287)" d="m0 0h1l1 12 1 37v24l-2 15-2 36-2 11h-1l1-19 2-41z" fill="#093A74"/>
<path transform="translate(1153,790)" d="m0 0 4 1-5 5-8 10-9 10-10 13h-2l-2 4-24 24-8 7-11 10-11 9-5 4-2-1 13-12 9-7 16-15 7-7 8-7 7-8 10-11 7-9 10-12z" fill="#4A515F"/>
<path transform="translate(959,800)" d="m0 0 82 1-4 2h-78l-2 7-1 3v12l25 1 58 1v1h-74l-14-1 1-4 1 1 2-20z" fill="#4A515F"/>
<path transform="translate(817,685)" d="m0 0 3 3 8 14-1 3-10-1-16-1-4-4v-2l9-2 13-1z" fill="#58606F"/>
<path transform="translate(1287,686)" d="m0 0h42l2 3-7 2-33 2h-12l4-2 3-1-1-2h2z" fill="#121D49"/>
<path transform="translate(1294,936)" d="m0 0h39l1 1v5h-12l-7-1-5 1-16 1-1-1v-5z" fill="#18224B"/>
<path transform="translate(893,823)" d="m0 0 4 1 1 3 22 2v-2l-3-1 1-2 7 5v1h-25l-6-1 3 7 13 13v2l4 2 12 11 11 9 14 11 1 2-4-2-16-12-10-9-9-7v-2l-4-2-15-15-3-8z" fill="#093A74"/>
<path transform="translate(1339,658)" d="m0 0 2 3 1 4v10l-5 6-7 2h-77l-7-1-2-7-5-2v-1l8 1 7 3 4 4 7 1h62l10-3 3-4v-8z" fill="#58606F"/>
<path transform="translate(1152,387)" d="m0 0h10l4 4-9 4-16 2 4 3 20 6 5 1v1l-10-1-16-5-15-6-2-4h23l5-2 1-1z" fill="#5F6672"/>
<path transform="translate(944,733)" d="m0 0 2 1-5 6-8 7-16 17-10 10-1 5 7 9 14 12 12 11 8 7 4 5-4-2-11-9-9-9-8-7-12-11-4-5v-5l7-8 8-7 16-17z" fill="#585F6C"/>
<path transform="translate(733,561)" d="m0 0 2 3 14 40 12 26 11 23 9 17 2 7-3-3-12-23-13-27-9-21-12-35-1-1z" fill="#555D6C"/>
<path transform="translate(1214,698)" d="m0 0h5l-1 4-1 3h-2l-2 5-9 15-4 1-2-2 1-7 8-11z" fill="#093A74"/>
<path transform="translate(1124,384)" d="m0 0 20 1 14 4-4 3-4 1h-11l-9-1v-2l-5-1-4-2z" fill="#4A515F"/>
<path transform="translate(579,958)" d="m0 0 5 2 9 8 8 7 3 10-4-1-8-8-11-9-2-4z" fill="#101C48"/>
<path transform="translate(1105,789)" d="m0 0h35v4l-15 15-1 2h-2l-2 4-12 14-3 2h-6l3-5 1-32h1v32l5-3 14-15 9-10 5-4 1-2-33-1z" fill="#4A515F"/>
<path transform="translate(1288,242)" d="m0 0 2 1v88l-1 7h-1l-1-39z" fill="#2A3253"/>
<path transform="translate(1014,950)" d="m0 0h1l3 10-1 3 2 1 1-8h1v29l-1 1h-6l-1-7v-17z" fill="#222C52"/>
<path transform="translate(1084,970)" d="m0 0 4 5 6 4h11l6-2 1 3-1 5-8 2h-7l-9-3-2-1v-2h3l-4-7z" fill="#12284D"/>
<path transform="translate(669,936)" d="m0 0h7l1 1v47h-1l-1-32-4-1-1 33h-1z" fill="#2A3351"/>
<path transform="translate(827,936)" d="m0 0 3 1h-2l1 21 1 5-1 19-2 2v-19h-21l-7-1v-1h11v-2l7-1h7l2 1v-2h-5v-1h6z" fill="#2F4A6C"/>
<path transform="translate(1010,422)" d="m0 0 2 1 5 4v2h2l4 5v12h-1l-1-6-13-5-3-6 3-6z" fill="#575F6E"/>
<path transform="translate(854,936)" d="m0 0h6l1 1v49h-7v-1h6l-1-36-3 3-1 24h-1l-1-39z" fill="#0B2249"/>
<path transform="translate(823,206)" d="m0 0 4 1-4 4-12 2-6 3-16 6-6 2-10 2h-6l1-2 39-12z" fill="#13294C"/>
<path transform="translate(986,135)" d="m0 0 4 1-1 2h2v2l-9 1v2l-9 5h-2v2l-7 2v2l-5 1v2l-6 3h-2v-2l6-2 2-4 10-7 8-5h3l1-3z" fill="#18568E"/>
<path transform="translate(851,727)" d="m0 0h21v1l-19 1-1 1-1 61-2 2-1-5 1-57z" fill="#595F6C"/>
<path transform="translate(1261,498)" d="m0 0h3l-1 5-4 10-4 1-11-9-2-3 7 2 9-4z" fill="#565E6D"/>
<path transform="translate(955,813)" d="m0 0h1l2 10 42 1h46v2h-90l-1-1z" fill="#656B77"/>
<path transform="translate(1154,975)" d="m0 0 4 2 5 2 11 1 1 5 2 1-7 1-13-2-5-5z" fill="#18244D"/>
<path transform="translate(963,894)" d="m0 0 5 2 11 7 13 8 11 7 2 1h6l11-6 5-2-4 4-11 6-6 1-1 2-4-1-3-2v-2l-4-2-5-5-8-5-11-6-7-6z" fill="#093A74"/>
<path transform="translate(954,448)" d="m0 0h1l-1 15h2v2l6 2 2 3v9l-1-3-9 3-1-1v-24z" fill="#575F6E"/>
<path transform="translate(1273,458)" d="m0 0h1l-1 16-5 19-8 24-3 1-8-7-10-9v-6h1l2 6 10 9 3 2h3l6-15 6-23z" fill="#093A74"/>
<path transform="translate(1022,447)" d="m0 0 10 3 7 2 2-1-1 12-2-4-12-2-5-1z" fill="#575F6E"/>
<path transform="translate(1467,954)" d="m0 0h1v11h2l2 8 3 1v11l-1 1h-6l-1-1z" fill="#161F4A"/>
<path transform="translate(1278,399)" d="m0 0h1v24l-7 47-5 21-2 3v-7l4-15 5-30 2-16z" fill="#5B626F"/>
<path transform="translate(885,795)" d="m0 0 4 1 12 11 9 7 4 5 7 5 10 1 18-1 2-1v4h-30l-11-9-5-4-12-12-8-6z" fill="#606774"/>
<path transform="translate(1530,980)" d="m0 0h26v5h-24l-3-2z" fill="#0A1544"/>
<path transform="translate(884,953)" d="m0 0 8 3-2 1v2l8 1 4 3v3l-12-2-10-4-2-3z" fill="#12284C"/>
<path transform="translate(969,937)" d="m0 0h1v48l-1 1h-6l-1-1v-20l-3-1h4l1 13 4-1z" fill="#3F4862"/>
<path transform="translate(1286,558)" d="m0 0h3l8 11 11 15 7 12h-3l-2-1-4-8-4-4-1-5h-2l-10-14v-2l-3-1z" fill="#121D49"/>
<path transform="translate(1196,406)" d="m0 0 9 1 13 4 7 1-4 2h-23l-12-2v-1h15z" fill="#5E6571"/>
<path transform="translate(525,952)" d="m0 0 4 5 7 14h-3v-2l-5-1-3 1-5-11v-2l4-2z" fill="#10254B"/>
<path transform="translate(1105,790)" d="m0 0h34l-2 4-3 1 1-4-28 1-1 2v28l8-6-2 4-5 5h-3v-34z" fill="#093A74"/>
<path transform="translate(1467,937)" d="m0 0 7 3 1 3v23h-2l-1-13-4 2-1-1z" fill="#072048"/>
<path transform="translate(696,962)" d="m0 0h20v6h-19l-1-1z" fill="#142450"/>
<path transform="translate(959,800)" d="m0 0 82 1-4 2h-78l-2 7-2 3v-9z" fill="#565D6C"/>
<path transform="translate(1175,725)" d="m0 0h18l2 3v18l3 1-2 13h-2l-1-31-16-1-5-1z" fill="#3B5D7C"/>
<path transform="translate(954,440)" d="m0 0h1v8l-2 14-1 1-1 29-2-2v-26l2-15z" fill="#081544"/>
<path transform="translate(563,954)" d="m0 0h1v31l-1 1h-7v-13l3 3 3-4z" fill="#252E52"/>
<path transform="translate(993,138)" d="m0 0 5 3 9 3 5 3 3 4 1 4-5-2-15-9-3-3z" fill="#144175"/>
<path transform="translate(1525,937)" d="m0 0h30v5l-21-1-2-2-5 1-2 1z" fill="#091343"/>
<path transform="translate(769,570)" d="m0 0 2 3v2h2l8 26 4 9 2 9-3-4-3-10h-2l-5-15-5-16z" fill="#1F81BD"/>
<path transform="translate(1338,936)" d="m0 0h8l3 9 1 8-2-1v-3l-6-2-4-8z" fill="#131F4A"/>
<path transform="translate(1270,958)" d="m0 0h17v6l-1 1h-9l-6-3z" fill="#1D274E"/>
<path transform="translate(1059,816)" d="m0 0v3l-5 5-7 3h-66v-1h65v-2l10-5z" fill="#565E6D"/>
<path transform="translate(1317,615)" d="m0 0 3 3 3 5v2h2l6 10 5 11 3 7v5l-2-3-4-9v-2h-2l-8-16-2-6h-2z" fill="#2B4D76"/>
<path transform="translate(1072,340)" d="m0 0h32l18 2 12 3 7 3-4 1-4-2-12-2-1-1-22-2-26-1z" fill="#527A99"/>
<path transform="translate(740,937)" d="m0 0h21l-1 3-3 2h-16l-2-4z" fill="#081443"/>
<path transform="translate(1250,441)" d="m0 0h1v8l-6 39-2 3-1 11-2-1 1-11 7-36z" fill="#595F6D"/>
<path transform="translate(1215,700)" d="m0 0 1 2-8 14h-2l-2 5-4 2v-5l12-16z" fill="#4A515F"/>
<path transform="translate(944,733)" d="m0 0 2 1-5 6-8 7-16 17-12 12 1-4 4-5 8-7 16-17z" fill="#565D6A"/>
<path transform="translate(1212,976)" d="m0 0 4 2 12 2v1h-6l2 5h-9l-6-3z" fill="#182D50"/>
<path transform="translate(1267,969)" d="m0 0h1l1 16-1 1h-6l-1-5 3-9z" fill="#101A46"/>
<path transform="translate(1214,513)" d="m0 0 4 2 7 9 7 11 3 4-1 2-10-13-5-6-1 5-2-4-2-5z" fill="#616875"/>
<path transform="translate(1124,384)" d="m0 0 13 1 6 2-2 2-5 1h-9l-6-3z" fill="#083972"/>
<path transform="translate(800,958)" d="m0 0h21l5 1v2h-16v2h-9z" fill="#091343"/>
<path transform="translate(846,433)" d="m0 0 2 2v11l-1 2h-2l-1 5-2-4v-13h3z" fill="#0F5C9A"/>
<path transform="translate(1037,902)" d="m0 0 2 1-14 9-10 6-2-1 4-5h2l1-3 9-4z" fill="#4A515F"/>
<path transform="translate(704,373)" d="m0 0h2l1 22v17h-1l-2-14-1-18z" fill="#304F73"/>
<path transform="translate(669,939)" d="m0 0 4 5 2 1v7l-4-1-1 33h-1z" fill="#172C4F"/>
<path transform="translate(1257,688)" d="m0 0h11v2h2l-1 3h-18v-3z" fill="#091343"/>
<path transform="translate(890,936)" d="m0 0h12l7 3-1 7-5-2-11-2v-1h7l1-2v-1l-10-1z" fill="#1B2E52"/>
<path transform="translate(1155,691)" d="m0 0 5 2 10 5 10 1 9-5 1-3 2 4-10 6-2 1h-7l-14-7z" fill="#585E6C"/>
<path transform="translate(1533,958)" d="m0 0h18v5l-18-1z" fill="#081343"/>
<path transform="translate(1081,804)" d="m0 0h1l1 18 3 3h12l3-5h1l-1 7-3 1h-14l-3-2z" fill="#666C78"/>
<path transform="translate(764,639)" d="m0 0 3 4 11 22 4 6 1 6-3-3-12-23-4-8z" fill="#5B616F"/>
<path transform="translate(1177,936)" d="m0 0 9 3-1 7-9-3-8-1v-1l8-1z" fill="#192C4F"/>
<path transform="translate(935,834)" d="m0 0 11 7 10 7 11 8 6 4-2 1-14-9-12-9-9-5z" fill="#585F6C"/>
<path transform="translate(1112,938)" d="m0 0 5 2 3 5-1 4-4-1-9-5 3-1 1-2 1 1z" fill="#17274F"/>
<path transform="translate(1186,568)" d="m0 0h8l7 10 6 1v2l-4 2-5-1-2-2-3-8-1-3h-6z" fill="#616875"/>
<path transform="translate(1088,387)" d="m0 0h12l-4 3-11 4h-2l-2-3-4-1 5-2z" fill="#575F6D"/>
<path transform="translate(1262,501)" d="m0 0 1 2-4 10-4 1-10-8h3l7 1 5-1z" fill="#4A515F"/>
<path transform="translate(817,737)" d="m0 0 6 2 7 8 3 8-1 3-6-9-8-10z" fill="#275784"/>
<path transform="translate(734,568)" d="m0 0 2 3 8 24-1 3-4-6-2-6-1-5-2-6z" fill="#083972"/>
<path transform="translate(1161,980)" d="m0 0h13l1 5 2 1-7 1-6-1 1-5z" fill="#142A4E"/>
<path transform="translate(949,882)" d="m0 0 4 1 16 12 11 7-3 1-15-10-12-9z" fill="#525F71"/>
<path transform="translate(882,426)" d="m0 0 3 3v13h-3l-2-4v-9z" fill="#0F5C9A"/>
<path transform="translate(877,976)" d="m0 0 5 1 5 2-2 5-5 1-4-2z" fill="#18244E"/>
<path transform="translate(1467,954)" d="m0 0h1v11h2l-1 20h5v1h-6l-1-1z" fill="#33445E"/>
<path transform="translate(1456,824)" d="m0 0h4l-2 5h-21v-1l14-3z" fill="#071E45"/>
<path transform="translate(885,795)" d="m0 0 4 1 12 11 9 7 5 7-4-2-6-5-12-12-8-6z" fill="#575E6C"/>
<path transform="translate(1196,756)" d="m0 0h1v27l-2 8h-1v-12l1-19z" fill="#3580B1"/>
<path transform="translate(1339,658)" d="m0 0 2 3 1 4v10l-5 6-7 2h-18v-1l15-1 10-3 3-4v-8z" fill="#535A68"/>
<path transform="translate(1204,534)" d="m0 0h1v14l-3 8 1 5 8 5-3 1-8-5-1-1 1-7 3-9z" fill="#525866"/>
<path transform="translate(1254,529)" d="m0 0 5 3 8 7 4 7h-3l-9-8-3-5z" fill="#284972"/>
<path transform="translate(456,719)" d="m0 0h6l-3 4-1 12h-2v12h-1v-22z" fill="#4077A2"/>
<path transform="translate(798,650)" d="m0 0h3l8 17 7 13-1 2-10-18-2-6h-2z" fill="#217BB3"/>
<path transform="translate(1078,792)" d="m0 0h1l1 33 4 6-6 6-2-1 4-4-1-4-1-2z" fill="#093A74"/>
<path transform="translate(1086,369)" d="m0 0h6l-2 2-17 4-3 2-8 1 3-3z" fill="#515866"/>
<path transform="translate(702,350)" d="m0 0h2v30l-2-3-1-6 1-12z" fill="#093A74"/>
<path transform="translate(1358,971)" d="m0 0h1l-1 7-3 7h-2l-1-8 5-5z" fill="#111C48"/>
<path transform="translate(1175,725)" d="m0 0h18l1 2-2 1h-15l-5-1z" fill="#1D5181"/>
<path transform="translate(967,146)" d="m0 0m-1 1m-1 1m4 0h2v2l-7 2v2l-5 1v2l-6 3h-2v-2l6-2 2-4 4-3z" fill="#296699"/>
<path transform="translate(854,936)" d="m0 0h6l1 3-1 9-1-4-4-1-2-6z" fill="#151E49"/>
<path transform="translate(1339,824)" d="m0 0h6l-1 5h-14v-2z" fill="#092046"/>
<path transform="translate(1183,470)" d="m0 0h5l-4 1 4 9 5 10 1 9-2-3-9-22z" fill="#4E5563"/>
<path transform="translate(1095,368)" d="m0 0h14l9 3v1l-15-1-9-1z" fill="#4D5462"/>
<path transform="translate(1213,488)" d="m0 0 4 2 5 3 9 10 3 3v2l-4-2-8-9-8-7z" fill="#62768D"/>
<path transform="translate(748,229)" d="m0 0h7l-3 3-10 2-7 1-1-3z" fill="#192E51"/>
<path transform="translate(929,973)" d="m0 0h2l1 3v9l-5-1v-7z" fill="#091343"/>
<path transform="translate(1193,791)" d="m0 0v3l-5 1h-14v-3z" fill="#258AC4"/>
<path transform="translate(874,790)" d="m0 0 5 1 1 2h-4l-1 37h-1z" fill="#093A74"/>
<path transform="translate(958,152)" d="m0 0m-1 1m-2 1h2v2l-6 2-1 3-7 4h-2l1-4z" fill="#104A84"/>
<path transform="translate(769,570)" d="m0 0 2 3v2h2l4 13-1 5-2-3-5-16z" fill="#2388C2"/>
<path transform="translate(554,936)" d="m0 0 5 2 10 9-3 1-5-4-3-1-1-4h-3z" fill="#1A254D"/>
<path transform="translate(877,446)" d="m0 0 3 1 2 8-1 3h-3l-2-6v-5z" fill="#2E96CD"/>
<path transform="translate(761,937)" d="m0 0h5l-2 1v2h2l1 5h-3l-7-3z" fill="#152A4E"/>
<path transform="translate(871,821)" d="m0 0h1v8l-2 1h-9l-1-3 10-2z" fill="#747A84"/>
<path transform="translate(921,727)" d="m0 0h28l1 4-2 1-1-3h-25l-4 3-2-1z" fill="#556071"/>
<path transform="translate(1159,953)" d="m0 0 5 2-1 3h-2l1 4-5-2-3-3v-2h4z" fill="#172E53"/>
<path transform="translate(1232,938)" d="m0 0 4 2-1 3h2v2h2l-1 3-7-4-4-2 4-2z" fill="#11284C"/>
<path transform="translate(814,742)" d="m0 0 5 1 5 4 2 6-6-4z" fill="#2C76AB"/>
<path transform="translate(1369,730)" d="m0 0h3l-1 9-1 21h-1z" fill="#0F5C9A"/>
<path transform="translate(823,206)" d="m0 0 4 1-4 4-9 1 1-3z" fill="#0E274D"/>
<path transform="translate(922,728)" d="m0 0h25l1 4-4 1v-3h-24z" fill="#ACB2B6"/>
<path transform="translate(1243,481)" d="m0 0h2v7l-2 3-1 11-2-1 1-11z" fill="#555C6A"/>
<path transform="translate(739,976)" d="m0 0h1v9h-5l1-8z" fill="#091343"/>
<path transform="translate(1081,804)" d="m0 0h1l1 18 4 4v2l-5-1-1-1z" fill="#646A76"/>
<path transform="translate(639,975)" d="m0 0 2 2v7h-7l1-5z" fill="#131E4A"/>
<path transform="translate(767,948)" d="m0 0h3v3h2l1 3-3 6h-2v-7z" fill="#183358"/>
<path transform="translate(936,811)" d="m0 0 5 1 10 10h-3l-12-10z" fill="#5A616F"/>
<path transform="translate(1059,816)" d="m0 0v3l-5 5-4 2h-4v-2l10-5z" fill="#5E6471"/>
<path transform="translate(944,733)" d="m0 0 2 1-5 6-8 7-2 1 2-4z" fill="#2C496F"/>
<path transform="translate(1329,623)" d="m0 0h3l4 8v3l-4-2 1-3-4-2z" fill="#121C47"/>
<path transform="translate(1100,964)" d="m0 0 8 2 1-2h4l1 4-14-1z" fill="#1A3154"/>
<path transform="translate(912,851)" d="m0 0 4 2 4 4 5 3 3 5-4-2-12-11z" fill="#4D5462"/>
<path transform="translate(1155,691)" d="m0 0 5 2 12 6 1 2-4-1-10-5z" fill="#4A515F"/>
<path transform="translate(836,201)" d="m0 0h5l-3 3-5 2-5 1v-3z" fill="#152A4E"/>
<path transform="translate(1443,961)" d="m0 0 2 3 2 5-9-1v-2l4-2z" fill="#13294C"/>
<path transform="translate(1069,788)" d="m0 0h1v11l-3 11h-1v-7l2-5z" fill="#525967"/>
<path transform="translate(977,140)" d="m0 0m-1 1v3h-2v2h-2v2l-7 2 4-5z" fill="#093B75"/>
<path transform="translate(934,958)" d="m0 0h11l2 2-7 1-6-2z" fill="#091343"/>
<path transform="translate(851,727)" d="m0 0h21v1l-19 1-3 4v-5z" fill="#525967"/>
<path transform="translate(1199,556)" d="m0 0h2l2 5 8 5-3 1-8-5-1-1z" fill="#606774"/>
<path transform="translate(1268,477)" d="m0 0h2l-2 11-2 6h-1v-7z" fill="#555C6A"/>
<path transform="translate(1152,387)" d="m0 0h10l-1 4-7 1 2-3z" fill="#58606F"/>
<path transform="translate(812,210)" d="m0 0 3 1-2 2-7 2-5 1v-2z" fill="#172D51"/>
<path transform="translate(1419,966)" d="m0 0h2v3l18 1v1h-20l-1-4z" fill="#274265"/>
<path transform="translate(1193,825)" d="m0 0h2l1 4-4 1-6-1 2-3z" fill="#0C2349"/>
<path transform="translate(925,801)" d="m0 0 4 1 9 8-3 1-8-8z" fill="#595F6D"/>
<path transform="translate(1216,731)" d="m0 0h4l-1 6-2 5h-1z" fill="#105F9C"/>
<path transform="translate(1317,615)" d="m0 0 3 3 3 5v2h2l1 4-2 1-3-6v-2h-2z" fill="#4D6077"/>
<path transform="translate(739,586)" d="m0 0h2l3 9-1 3-4-6z" fill="#093A74"/>
<path transform="translate(905,811)" d="m0 0 4 2 6 8-4-2-6-5z" fill="#3A6384"/>
<path transform="translate(915,790)" d="m0 0 7 6 5 5-4-1-8-7z" fill="#565D6B"/>
<path transform="translate(1055,389)" d="m0 0 2 1-10 9-1-3 3-1 1-3z" fill="#58606F"/>
<path transform="translate(907,171)" d="m0 0 2 1-4 4-7 2 1-3z" fill="#1B3155"/>
</svg>
